<svg width="225" height="165" xmlns="http://www.w3.org/2000/svg">

 <g>
  <title>Layer 1</title>
  <path stroke="null" id="svg_1" fill="#e94e09" d="m217.69069,145.02935c-27.178,1.942 -33.245,-11.405 -38.583,-26.935c-3.864,-11.24 -8.25,-25.398 -10.224,-32.22c12.49,-19.179 26.968,-42.207 48.524,-76.25l-40.333,0c-7.171,11.244 -14.254,22.63 -21.264,33.766c-2.002,-5.605 -4.76,-11.64 -7.964,-16.77c-9.282,-14.382 -23.88,-24.282 -45.636,-22.95c-28.76,1.762 -50.485,15.544 -68.021,33.08c-16.08,16.077 -31.763,39.56 -33.547,66.158c-2.387,35.606 23.625,56 53.114,58.237c23.304,1.769 40.755,-4.426 55.443,-12.113c9.97,-5.217 31.185,-22.894 37.534,-30.775c4.712,21.849 16.872,42.787 44.264,42.787c16.977,0 27.73,-9.32 33.512,-16.522c-2.076,0.16 -4.332,0.328 -6.82,0.506l0.001,0.001zm-130.854,-13.234c-6.291,4.558 -14.36,9.4 -22.83,10.716c-21.063,3.27 -30.352,-13.083 -28.886,-34.944c1.144,-17.068 7.915,-32.88 15.84,-46.59c8.124,-14.053 17.609,-26.505 28.422,-34.01c3.86,-2.683 9.66,-5.878 17.704,-6.524c19.358,-1.554 26.482,19.39 31.407,36.94c2.3,8.236 3.849,16.614 4.596,21.02c-5.52,8.103 -22.655,36.294 -46.253,53.392z"/>
  <path stroke="#fff" id="svg_2" stroke-width="0.5" fill="none" d="m27.25,326.03l-27,0m27,-325.78l-27,0"/>
 </g>
</svg>